<svg xmlns="http://www.w3.org/2000/svg" viewBox="0 0 1000 963.197">
  <g transform="translate(-489.308 -507.761) scale(5.2068817)">
    <path
      fill="#E24329"
      d="M282.83 170.73l-.27-.69-26.14-68.22a6.81 6.81 0 0 0-2.69-3.24 7 7 0 0 0-8 .43 7 7 0 0 0-2.32 3.52l-17.65 54h-71.47l-17.65-54a6.86 6.86 0 0 0-2.32-3.53 7 7 0 0 0-8-.43 6.87 6.87 0 0 0-2.69 3.24L97.44 170l-.26.69a48.54 48.54 0 0 0 16.1 56.1l.09.07.24.17 39.82 29.82 19.7 14.91 12 9.06a8.07 8.07 0 0 0 9.76 0l12-9.06 19.7-14.91 40.06-30 .1-.08a48.56 48.56 0 0 0 16.08-56.04Z"
    />
    <path
      fill="#FC6D26"
      d="M282.83 170.73l-.27-.69a88.3 88.3 0 0 0-35.15 15.8L190 229.25c19.55 14.79 36.57 27.64 36.57 27.64l40.06-30 .1-.08a48.56 48.56 0 0 0 16.1-56.08Z"
    />
    <path
      fill="#FCA326"
      d="M153.43 256.89l19.7 14.91 12 9.06a8.07 8.07 0 0 0 9.76 0l12-9.06 19.7-14.91s-17.04-12.89-36.59-27.64c-19.55 14.75-36.57 27.64-36.57 27.64Z"
    />
    <path
      fill="#FC6D26"
      d="M132.58 185.84A88.19 88.19 0 0 0 97.44 170l-.26.69a48.54 48.54 0 0 0 16.1 56.1l.09.07.24.17 39.82 29.82s17-12.85 36.57-27.64Z"
    />
  </g>
</svg>
